{
  "accessors": [
    {
      "bufferView": 2,
      "componentType": 5126,
      "count": 2813,
      "max": [
        1.1741225719451904,
        1.7383873462677002,
        4.798616886138916
      ],
      "min": [
        -2.9920198917388916,
        -0.44678032398223877,
        -5.1737737655639648
      ],
      "type": "VEC3"
    },
    {
      "bufferView": 2,
      "byteOffset": 33756,
      "componentType": 5126,
      "count": 2813,
      "max": [
        0.99993515014648438,
        0.99999058246612549,
        0.99866396188735962
      ],
      "min": [
        -0.98349642753601074,
        -0.99955856800079346,
        -0.59372448921203613
      ],
      "type": "VEC3"
    },
    {
      "bufferView": 3,
      "componentType": 5126,
      "count": 2813,
      "max": [
        1,
        1,
        1,
        1
      ],
      "min": [
        0.99607843160629272,
        0.67450982332229614,
        0.41568627953529358,
        1
      ],
      "type": "VEC4"
    },
    {
      "bufferView": 1,
      "componentType": 5126,
      "count": 2813,
      "max": [
        0.79769611358642578,
        0.92355674505233765
      ],
      "min": [
        0.70753026008605957,
        0.83874231576919556
      ],
      "type": "VEC2"
    },
    {
      "bufferView": 0,
      "componentType": 5125,
      "count": 12672,
      "max": [
        2812
      ],
      "min": [
        0
      ],
      "type": "SCALAR"
    },
    {
      "bufferView": 2,
      "byteOffset": 67512,
      "componentType": 5126,
      "count": 1880,
      "max": [
        14.835833549499512,
        19.891399383544922,
        3.3679509162902832
      ],
      "min": [
        -22.538913726806641,
        -17.494609832763672,
        -34.636238098144531
      ],
      "type": "VEC3"
    },
    {
      "bufferView": 2,
      "byteOffset": 90072,
      "componentType": 5126,
      "count": 1880,
      "max": [
        0.99992656707763672,
        0.99968278408050537,
        0.99925816059112549
      ],
      "min": [
        -0.9994809627532959,
        -0.99968218803405762,
        -0.99730873107910156
      ],
      "type": "VEC3"
    },
    {
      "bufferView": 3,
      "byteOffset": 45008,
      "componentType": 5126,
      "count": 1880,
      "max": [
        1,
        1,
        1,
        1
      ],
      "min": [
        1,
        1,
        1,
        1
      ],
      "type": "VEC4"
    },
    {
      "bufferView": 1,
      "byteOffset": 22504,
      "componentType": 5126,
      "count": 1880,
      "max": [
        0.96035212278366089,
        0.66799056529998779
      ],
      "min": [
        0.021259577944874763,
        0.24098211526870728
      ],
      "type": "VEC2"
    },
    {
      "bufferView": 0,
      "byteOffset": 50688,
      "componentType": 5125,
      "count": 8256,
      "max": [
        1879
      ],
      "min": [
        0
      ],
      "type": "SCALAR"
    }
  ],
  "asset": {
    "extras": {
      "author": "SherwinKumar (https://sketchfab.com/Sherwin.Kumar)",
      "license": "CC-BY-4.0 (http://creativecommons.org/licenses/by/4.0/)",
      "source": "https://sketchfab.com/3d-models/apple-4007a1020b07460f9a6c68257b08ff68",
      "title": "apple"
    },
    "generator": "Sketchfab-9.54.0",
    "version": "2.0"
  },
  "bufferViews": [
    {
      "buffer": 0,
      "byteLength": 83712,
      "byteOffset": 0,
      "name": "floatBufferViews",
      "target": 34963
    },
    {
      "buffer": 0,
      "byteLength": 37544,
      "byteOffset": 83712,
      "byteStride": 8,
      "name": "floatBufferViews",
      "target": 34962
    },
    {
      "buffer": 0,
      "byteLength": 112632,
      "byteOffset": 121256,
      "byteStride": 12,
      "name": "floatBufferViews",
      "target": 34962
    },
    {
      "buffer": 0,
      "byteLength": 75088,
      "byteOffset": 233888,
      "byteStride": 16,
      "name": "floatBufferViews",
      "target": 34962
    }
  ],
  "buffers": [
    {
      "byteLength": 308976,
      "uri": "scene.bin"
    }
  ],
  "images": [
    {
      "uri": "textures/stick_baseColor.png"
    }
  ],
  "materials": [
    {
      "doubleSided": true,
      "emissiveFactor": [
        0,
        0,
        0
      ],
      "name": "stick",
      "pbrMetallicRoughness": {
        "baseColorFactor": [
          1,
          1,
          1,
          1
        ],
        "baseColorTexture": {
          "index": 0,
          "texCoord": 0
        },
        "metallicFactor": 0,
        "roughnessFactor": 0.81949557839999998
      }
    },
    {
      "doubleSided": true,
      "emissiveFactor": [
        0,
        0,
        0
      ],
      "name": "apple",
      "pbrMetallicRoughness": {
        "baseColorFactor": [
          1,
          1,
          1,
          1
        ],
        "baseColorTexture": {
          "index": 0,
          "texCoord": 0
        },
        "metallicFactor": 0,
        "roughnessFactor": 0.25042865219999999
      }
    }
  ],
  "meshes": [
    {
      "name": "stick_stick_0",
      "primitives": [
        {
          "attributes": {
            "COLOR_0": 2,
            "NORMAL": 1,
            "POSITION": 0,
            "TEXCOORD_0": 3
          },
          "indices": 4,
          "material": 0,
          "mode": 4
        }
      ]
    },
    {
      "name": "stick_apple_0",
      "primitives": [
        {
          "attributes": {
            "COLOR_0": 7,
            "NORMAL": 6,
            "POSITION": 5,
            "TEXCOORD_0": 8
          },
          "indices": 9,
          "material": 1,
          "mode": 4
        }
      ]
    }
  ],
  "nodes": [
    {
      "children": [
        1
      ],
      "name": "RootNode (gltf orientation matrix)",
      "rotation": [
        -0.70710678118654746,
        -0,
        -0,
        0.70710678118654757
      ]
    },
    {
      "children": [
        2
      ],
      "name": "RootNode (model correction matrix)"
    },
    {
      "children": [
        3
      ],
      "matrix": [
        1,
        0,
        0,
        0,
        0,
        0,
        1,
        0,
        0,
        -1,
        0,
        0,
        0,
        0,
        0,
        1
      ],
      "name": "apple.fbx"
    },
    {
      "children": [
        4
      ],
      "name": "RootNode"
    },
    {
      "children": [
        5,
        6
      ],
      "matrix": [
        7.4395887467140049,
        24.267839524473096,
        77.763461565057128,
        0,
        81.410403901549088,
        -4.9980426035558692,
        -6.2287380106736823,
        0,
        2.9034685287369792,
        77.958484289885092,
        -24.606474038068523,
        0,
        -50.637142181396484,
        620.336181640625,
        14.323504447937012,
        1
      ],
      "name": "stick"
    },
    {
      "mesh": 0,
      "name": "stick_stick_0"
    },
    {
      "mesh": 1,
      "name": "stick_apple_0"
    }
  ],
  "samplers": [
    {
      "magFilter": 9729,
      "minFilter": 9987,
      "wrapS": 10497,
      "wrapT": 10497
    }
  ],
  "scene": 0,
  "scenes": [
    {
      "name": "OSG_Scene",
      "nodes": [
        0
      ]
    }
  ],
  "textures": [
    {
      "sampler": 0,
      "source": 0
    }
  ]
}

