{
  "accessors": [
    {
      "bufferView": 2,
      "componentType": 5126,
      "count": 50252,
      "max": [
        0.26436799764633179,
        0.26436799764633179,
        1
      ],
      "min": [
        -0.26436799764633179,
        -0.29885101318359375,
        0.48275899887084961
      ],
      "type": "VEC3"
    },
    {
      "bufferView": 2,
      "byteOffset": 603024,
      "componentType": 5126,
      "count": 50252,
      "max": [
        1,
        1,
        1
      ],
      "min": [
        -1,
        -1,
        -1
      ],
      "type": "VEC3"
    },
    {
      "bufferView": 3,
      "componentType": 5126,
      "count": 50252,
      "max": [
        1,
        1,
        0,
        1
      ],
      "min": [
        -1,
        -1,
        0,
        -1
      ],
      "type": "VEC4"
    },
    {
      "bufferView": 1,
      "componentType": 5126,
      "count": 50252,
      "max": [
        0.73632800579071045,
        0.85742199420928955
      ],
      "min": [
        0.0019531199941411614,
        0.72070300579071045
      ],
      "type": "VEC2"
    },
    {
      "bufferView": 0,
      "componentType": 5125,
      "count": 75378,
      "max": [
        50251
      ],
      "min": [
        0
      ],
      "type": "SCALAR"
    },
    {
      "bufferView": 2,
      "byteOffset": 1206048,
      "componentType": 5126,
      "count": 64,
      "max": [
        0.34482800960540771,
        -0.022988500073552132,
        0.18390800058841705
      ],
      "min": [
        0.33333298563957214,
        -0.045977000147104263,
        0.16091999411582947
      ],
      "type": "VEC3"
    },
    {
      "bufferView": 2,
      "byteOffset": 1206816,
      "componentType": 5126,
      "count": 64,
      "max": [
        1,
        1,
        1
      ],
      "min": [
        -1,
        -1,
        -1
      ],
      "type": "VEC3"
    },
    {
      "bufferView": 3,
      "byteOffset": 804032,
      "componentType": 5126,
      "count": 64,
      "max": [
        1,
        1,
        0,
        1
      ],
      "min": [
        -1,
        -1,
        0,
        -1
      ],
      "type": "VEC4"
    },
    {
      "bufferView": 1,
      "byteOffset": 402016,
      "componentType": 5126,
      "count": 64,
      "max": [
        0.068359397351741791,
        0.99804699420928955
      ],
      "min": [
        0.037109401077032089,
        0.96679699420928955
      ],
      "type": "VEC2"
    },
    {
      "bufferView": 0,
      "byteOffset": 301512,
      "componentType": 5125,
      "count": 96,
      "max": [
        63
      ],
      "min": [
        0
      ],
      "type": "SCALAR"
    },
    {
      "bufferView": 2,
      "byteOffset": 1207584,
      "componentType": 5126,
      "count": 6184,
      "max": [
        0.10344800353050232,
        0.1264369934797287,
        0.70114898681640625
      ],
      "min": [
        -0.057471301406621933,
        -0.034482799470424652,
        0
      ],
      "type": "VEC3"
    },
    {
      "bufferView": 2,
      "byteOffset": 1281792,
      "componentType": 5126,
      "count": 6184,
      "max": [
        1,
        1,
        1
      ],
      "min": [
        -1,
        -1,
        -1
      ],
      "type": "VEC3"
    },
    {
      "bufferView": 3,
      "byteOffset": 805056,
      "componentType": 5126,
      "count": 6184,
      "max": [
        1,
        1,
        0,
        1
      ],
      "min": [
        -1,
        -1,
        0,
        -1
      ],
      "type": "VEC4"
    },
    {
      "bufferView": 1,
      "byteOffset": 402528,
      "componentType": 5126,
      "count": 6184,
      "max": [
        0.73632800579071045,
        0.99804699420928955
      ],
      "min": [
        0.70507800579071045,
        0.96679699420928955
      ],
      "type": "VEC2"
    },
    {
      "bufferView": 0,
      "byteOffset": 301896,
      "componentType": 5125,
      "count": 9276,
      "max": [
        6183
      ],
      "min": [
        0
      ],
      "type": "SCALAR"
    }
  ],
  "asset": {
    "extras": {
      "author": "Plutouthere (https://sketchfab.com/Plutouthere)",
      "license": "CC-BY-4.0 (http://creativecommons.org/licenses/by/4.0/)",
      "source": "https://sketchfab.com/3d-models/minecraft-giant-palm-tree-eaa9b692b2744592be71678a83e8c07e",
      "title": "Minecraft Giant Palm Tree"
    },
    "generator": "Sketchfab-7.15.0",
    "version": "2.0"
  },
  "bufferViews": [
    {
      "buffer": 0,
      "byteLength": 339000,
      "byteOffset": 0,
      "name": "floatBufferViews",
      "target": 34963
    },
    {
      "buffer": 0,
      "byteLength": 452000,
      "byteOffset": 339000,
      "byteStride": 8,
      "name": "floatBufferViews",
      "target": 34962
    },
    {
      "buffer": 0,
      "byteLength": 1356000,
      "byteOffset": 791000,
      "byteStride": 12,
      "name": "floatBufferViews",
      "target": 34962
    },
    {
      "buffer": 0,
      "byteLength": 904000,
      "byteOffset": 2147000,
      "byteStride": 16,
      "name": "floatBufferViews",
      "target": 34962
    }
  ],
  "buffers": [
    {
      "byteLength": 3051000,
      "uri": "scene.bin"
    }
  ],
  "images": [
    {
      "uri": "textures/Leaves_baseColor.png"
    },
    {
      "uri": "textures/Leaves_emissive.png"
    }
  ],
  "materials": [
    {
      "alphaCutoff": 0.20000000000000001,
      "alphaMode": "MASK",
      "doubleSided": false,
      "emissiveFactor": [
        0.10000000000000001,
        0.10000000000000001,
        0.10000000000000001
      ],
      "emissiveTexture": {
        "index": 1,
        "texCoord": 0
      },
      "name": "Leaves",
      "pbrMetallicRoughness": {
        "baseColorFactor": [
          1,
          1,
          1,
          1
        ],
        "baseColorTexture": {
          "index": 0,
          "texCoord": 0
        },
        "metallicFactor": 0,
        "roughnessFactor": 1
      }
    },
    {
      "alphaMode": "BLEND",
      "doubleSided": true,
      "emissiveFactor": [
        0.10000000000000001,
        0.10000000000000001,
        0.10000000000000001
      ],
      "emissiveTexture": {
        "index": 1,
        "texCoord": 0
      },
      "name": "Stone",
      "pbrMetallicRoughness": {
        "baseColorFactor": [
          1,
          1,
          1,
          0
        ],
        "baseColorTexture": {
          "index": 1,
          "texCoord": 0
        },
        "metallicFactor": 0,
        "roughnessFactor": 0
      }
    },
    {
      "doubleSided": true,
      "emissiveFactor": [
        0.10000000000000001,
        0.10000000000000001,
        0.10000000000000001
      ],
      "emissiveTexture": {
        "index": 1,
        "texCoord": 0
      },
      "name": "Wood",
      "pbrMetallicRoughness": {
        "baseColorFactor": [
          1,
          1,
          1,
          1
        ],
        "baseColorTexture": {
          "index": 1,
          "texCoord": 0
        },
        "metallicFactor": 0,
        "roughnessFactor": 1
      }
    }
  ],
  "meshes": [
    {
      "primitives": [
        {
          "attributes": {
            "NORMAL": 1,
            "POSITION": 0,
            "TANGENT": 2,
            "TEXCOORD_0": 3
          },
          "indices": 4,
          "material": 0,
          "mode": 4
        }
      ]
    },
    {
      "primitives": [
        {
          "attributes": {
            "NORMAL": 6,
            "POSITION": 5,
            "TANGENT": 7,
            "TEXCOORD_0": 8
          },
          "indices": 9,
          "material": 1,
          "mode": 4
        }
      ]
    },
    {
      "primitives": [
        {
          "attributes": {
            "NORMAL": 11,
            "POSITION": 10,
            "TANGENT": 12,
            "TEXCOORD_0": 13
          },
          "indices": 14,
          "material": 2,
          "mode": 4
        }
      ]
    }
  ],
  "nodes": [
    {
      "children": [
        1
      ],
      "name": "RootNode (gltf orientation matrix)",
      "rotation": [
        -0.70710678118654746,
        -0,
        -0,
        0.70710678118654757
      ]
    },
    {
      "children": [
        2
      ],
      "name": "RootNode (model correction matrix)"
    },
    {
      "children": [
        3,
        4,
        5
      ],
      "name": "Mineways2Skfb.obj.minecraft.cleaner.materialmerger.gles"
    },
    {
      "mesh": 0,
      "name": ""
    },
    {
      "mesh": 1,
      "name": ""
    },
    {
      "mesh": 2,
      "name": ""
    }
  ],
  "samplers": [
    {
      "magFilter": 9728,
      "minFilter": 9986,
      "wrapS": 10497,
      "wrapT": 10497
    }
  ],
  "scene": 0,
  "scenes": [
    {
      "name": "OSG_Scene",
      "nodes": [
        0
      ]
    }
  ],
  "textures": [
    {
      "sampler": 0,
      "source": 0
    },
    {
      "sampler": 0,
      "source": 1
    }
  ]
}

